<mxfile host="app.diagrams.net" modified="2023-09-02T01:28:51.249Z" agent="Mozilla/5.0 (X11; Linux x86_64; rv:109.0) Gecko/20100101 Firefox/115.0" version="21.7.0" etag="vM63c4bRU8OrxKmpnifo" type="github">
  <diagram name="Page-1" id="SqMSpwmVnf8gJvgtyzii">
    <mxGraphModel>
      <root>
        <mxCell id="0" />
        <mxCell id="1" parent="0" />
      </root>
    </mxGraphModel>
  </diagram>
</mxfile>
